<?xml version="1.0" encoding="utf-8"?>
<!-- Generator: Adobe Illustrator 19.1.0, SVG Export Plug-In . SVG Version: 6.00 Build 0)  -->
<svg version="1.1" id="Layer_1" xmlns="http://www.w3.org/2000/svg" xmlns:xlink="http://www.w3.org/1999/xlink" x="0px" y="0px"
	 viewBox="0 0 100 100" style="enable-background:new 0 0 100 100;" xml:space="preserve">
<path d="M50.7,54.1c6.9,0,12.5-5.6,12.5-12.5S57.6,29,50.7,29s-12.5,5.6-12.5,12.5S43.8,54.1,50.7,54.1z M50.7,32.5
	c5,0,9.1,4.1,9.1,9.1c0,5-4.1,9.1-9.1,9.1s-9.1-4.1-9.1-9.1C41.6,36.5,45.7,32.5,50.7,32.5z M27.8,59.6h46c2.9,0,5.2-2.3,5.2-5.2
	l0-25.6c0-2.9-2.3-5.2-5.2-5.2h-7.1c-0.5,0-0.9-0.2-1.3-0.5l-2.2-2.2c-1-1-2.3-1.5-3.7-1.5H42c-1.4,0-2.7,0.5-3.7,1.5L36.2,23
	c-0.3,0.3-0.8,0.5-1.3,0.5h-7.1c-2.9,0-5.2,2.3-5.2,5.2v25.6C22.5,57.3,24.9,59.6,27.8,59.6z M26,28.7c0-1,0.8-1.8,1.8-1.8h7.1
	c1.4,0,2.7-0.5,3.7-1.5l2.2-2.2c0.3-0.3,0.8-0.5,1.3-0.5h17.4c0.5,0,0.9,0.2,1.3,0.5l2.2,2.2c1,1,2.3,1.5,3.7,1.5h7.1
	c1,0,1.8,0.8,1.8,1.8l0,25.6c0,1-0.8,1.8-1.8,1.8h-46c-1,0-1.8-0.8-1.8-1.8V28.7z M43.4,69.8C20.6,68.5,5.6,60.7,5.6,53.4
	c0-3.9,4.2-7.8,11.5-10.9v-3.7C7.5,42.6,2.2,47.7,2.2,53.4c0,10.2,17.6,18.5,41.2,19.8v7l8.5-8.5l-8.5-8.5V69.8z M84.4,39.3V43
	c6.6,3,10.3,6.7,10.3,10.4c0,7.7-15.4,14.7-35.9,16.2v3.4c23.2-1.7,39.4-9.8,39.4-19.7C98.1,48,93.2,43,84.4,39.3z"/>
</svg>
